<svg data-v-423bf9ae="" xmlns="http://www.w3.org/2000/svg" viewBox="0 0 564 90" class="iconLeft"><!----><!----><!----><g data-v-423bf9ae="" id="37a6ae5c-e2b7-4357-83d4-36d6abcca44c" fill="#1b9ce3" transform="matrix(4.276550621553721,0,0,4.276550621553721,143.52562625328284,2.4269423584373513)"><path d="M3.30 14.11L0 14.11L0 13.61L0 13.61Q0.46 13.57 0.69 13.40L0.69 13.40L0.69 13.40Q0.91 13.24 1.16 12.79L1.16 12.79L1.16 12.79Q1.41 12.33 1.88 11.17L1.88 11.17L4.79 3.89L4.79 3.89Q4.89 3.82 5.24 3.77L5.24 3.77L5.24 3.77Q5.60 3.71 5.74 3.71L5.74 3.71L5.74 3.71Q9.32 12.57 9.42 12.77L9.42 12.77L9.42 12.77Q9.56 13.02 9.67 13.15L9.67 13.15L9.67 13.15Q9.77 13.29 10.01 13.43L10.01 13.43L10.01 13.43Q10.25 13.57 10.57 13.61L10.57 13.61L10.57 14.11L6.57 14.11L6.57 13.64L6.57 13.64Q7.81 13.54 7.81 13.02L7.81 13.02L7.81 13.02Q7.81 12.64 7.52 11.97L7.52 11.97L7.25 11.35L7.25 11.35Q7.08 10.98 6.96 10.63L6.96 10.63L2.91 10.63L2.91 10.63Q2.66 11.20 2.35 12.00L2.35 12.00L2.35 12.00Q2.04 12.81 2.04 12.95L2.04 12.95L2.04 12.95Q2.04 13.45 3.30 13.57L3.30 13.57L3.30 14.11ZM4.91 5.42L3.11 10.02L6.78 10.02L4.91 5.42ZM10.60 4.30L10.60 4.30L10.60 3.78L13.79 3.78L13.92 4.16L17.05 11.94L17.05 11.94Q18.76 8.23 20.23 4.16L20.23 4.16L20.36 3.78L23.55 3.78L23.55 4.30L23.55 4.30Q23.16 4.31 22.95 4.33L22.95 4.33L22.95 4.33Q22.75 4.35 22.50 4.40L22.50 4.40L22.50 4.40Q22.25 4.45 22.14 4.55L22.14 4.55L22.14 4.55Q22.04 4.65 22.04 4.80L22.04 4.80L22.04 4.80Q22.04 4.84 22.30 12.49L22.30 12.49L22.32 12.88L22.32 12.88Q22.36 13.31 22.58 13.43L22.58 13.43L22.58 13.43Q22.79 13.55 23.45 13.59L23.45 13.59L23.45 14.11L19.57 14.11L19.57 13.59L19.57 13.59Q19.99 13.57 20.22 13.52L20.22 13.52L20.22 13.52Q20.45 13.48 20.64 13.34L20.64 13.34L20.64 13.34Q20.83 13.20 20.83 12.95L20.83 12.95L20.83 12.95Q20.79 10.25 20.52 5.75L20.52 5.75L20.52 5.75Q18.58 10.02 17.01 14.11L17.01 14.11L16.46 14.11L12.88 5.70L12.88 5.70Q12.67 9.31 12.67 12.95L12.67 12.95L12.67 12.95Q12.67 13.45 13.92 13.57L13.92 13.57L13.92 14.11L10.61 14.11L10.61 13.61L10.61 13.61Q11.24 13.54 11.48 13.24L11.48 13.24L11.48 13.24Q11.72 12.94 11.77 12.26L11.77 12.26L11.77 12.26Q11.91 10.11 12.00 8.24L12.00 8.24L12.00 8.24Q12.08 6.37 12.10 5.57L12.10 5.57L12.11 4.79L12.11 4.79Q12.11 4.52 11.74 4.43L11.74 4.43L11.74 4.43Q11.37 4.34 10.60 4.30ZM23.91 3.93L23.91 3.93L24.07 3.78L32.27 3.78L32.42 3.93L32.42 3.93Q32.35 5.12 32.35 6.69L32.35 6.69L31.86 6.69L31.86 6.69Q31.50 5.38 31.39 5.15L31.39 5.15L31.39 5.15Q31.33 4.98 31.26 4.84L31.26 4.84L31.26 4.84Q31.16 4.75 31.01 4.72L31.01 4.72L31.01 4.72Q30.28 4.58 29.54 4.58L29.54 4.58L29.54 4.58Q29.30 4.58 28.95 4.65L28.95 4.65L28.95 4.65Q28.84 7.29 28.84 12.95L28.84 12.95L28.84 12.95Q28.84 13.20 29.10 13.35L29.10 13.35L29.10 13.35Q29.36 13.50 29.62 13.54L29.62 13.54L29.62 13.54Q29.89 13.58 30.35 13.62L30.35 13.62L30.35 14.11L25.87 14.11L25.87 13.62L25.87 13.62Q26.21 13.59 26.41 13.57L26.41 13.57L26.41 13.57Q26.61 13.54 26.87 13.47L26.87 13.47L26.87 13.47Q27.12 13.40 27.24 13.27L27.24 13.27L27.24 13.27Q27.37 13.15 27.37 12.95L27.37 12.95L27.37 12.95Q27.41 10.23 27.41 7.63L27.41 7.63L27.41 7.63Q27.41 5.49 27.38 4.65L27.38 4.65L27.38 4.65Q27.03 4.58 26.80 4.58L26.80 4.58L26.80 4.58Q26.05 4.58 25.33 4.72L25.33 4.72L25.33 4.72Q25.17 4.75 25.07 4.84L25.07 4.84L25.07 4.84Q25.00 4.98 24.95 5.15L24.95 5.15L24.95 5.15Q24.84 5.38 24.47 6.69L24.47 6.69L23.98 6.69L23.98 6.69Q23.98 5.12 23.91 3.93ZM32.42 3.93L32.42 3.93L32.58 3.78L40.78 3.78L40.94 3.93L40.94 3.93Q40.87 5.12 40.87 6.69L40.87 6.69L40.38 6.69L40.38 6.69Q40.01 5.38 39.90 5.15L39.90 5.15L39.90 5.15Q39.84 4.98 39.77 4.84L39.77 4.84L39.77 4.84Q39.68 4.75 39.52 4.72L39.52 4.72L39.52 4.72Q38.79 4.58 38.05 4.58L38.05 4.58L38.05 4.58Q37.81 4.58 37.46 4.65L37.46 4.65L37.46 4.65Q37.35 7.29 37.35 12.95L37.35 12.95L37.35 12.95Q37.35 13.20 37.61 13.35L37.61 13.35L37.61 13.35Q37.87 13.50 38.14 13.54L38.14 13.54L38.14 13.54Q38.40 13.58 38.86 13.62L38.86 13.62L38.86 14.11L34.38 14.11L34.38 13.62L34.38 13.62Q34.72 13.59 34.92 13.57L34.92 13.57L34.92 13.57Q35.13 13.54 35.38 13.47L35.38 13.47L35.38 13.47Q35.63 13.40 35.76 13.27L35.76 13.27L35.76 13.27Q35.88 13.15 35.88 12.95L35.88 12.95L35.88 12.95Q35.92 10.23 35.92 7.63L35.92 7.63L35.92 7.63Q35.92 5.49 35.90 4.65L35.90 4.65L35.90 4.65Q35.55 4.58 35.31 4.58L35.31 4.58L35.31 4.58Q34.57 4.58 33.84 4.72L33.84 4.72L33.84 4.72Q33.68 4.75 33.59 4.84L33.59 4.84L33.59 4.84Q33.52 4.98 33.46 5.15L33.46 5.15L33.46 5.15Q33.35 5.38 32.98 6.69L32.98 6.69L32.49 6.69L32.49 6.69Q32.49 5.12 32.42 3.93ZM48.58 14.11L44.70 14.11L44.70 13.59L44.70 13.59Q45.12 13.57 45.35 13.52L45.35 13.52L45.35 13.52Q45.58 13.48 45.77 13.34L45.77 13.34L45.77 13.34Q45.96 13.20 45.96 12.95L45.96 12.95L45.96 12.95Q45.96 8.11 45.86 4.86L45.86 4.86L45.86 4.86Q45.85 4.55 45.65 4.45L45.65 4.45L45.65 4.45Q45.44 4.34 44.90 4.31L44.90 4.31L44.70 4.30L44.70 3.78L48.58 3.78L48.58 4.30L48.38 4.31L48.38 4.31Q47.84 4.34 47.63 4.45L47.63 4.45L47.63 4.45Q47.43 4.55 47.42 4.86L47.42 4.86L47.42 4.86Q47.38 7.34 47.36 8.33L47.36 8.33L53.12 8.33L53.12 8.33Q53.10 6.64 53.05 4.86L53.05 4.86L53.05 4.86Q53.03 4.55 52.83 4.45L52.83 4.45L52.83 4.45Q52.63 4.34 52.08 4.31L52.08 4.31L51.88 4.30L51.88 3.78L55.76 3.78L55.76 4.30L55.57 4.31L55.57 4.31Q55.02 4.34 54.82 4.45L54.82 4.45L54.82 4.45Q54.61 4.55 54.60 4.86L54.60 4.86L54.60 4.86Q54.50 7.66 54.50 12.95L54.50 12.95L54.50 12.95Q54.50 13.20 54.68 13.34L54.68 13.34L54.68 13.34Q54.87 13.47 55.10 13.52L55.10 13.52L55.10 13.52Q55.33 13.57 55.76 13.59L55.76 13.59L55.76 14.11L51.88 14.11L51.88 13.59L51.88 13.59Q52.30 13.57 52.53 13.52L52.53 13.52L52.53 13.52Q52.77 13.48 52.95 13.34L52.95 13.34L52.95 13.34Q53.14 13.20 53.14 12.95L53.14 12.95L53.14 12.95Q53.14 11.02 53.12 8.93L53.12 8.93L47.35 8.93L47.35 8.93Q47.35 9.79 47.34 10.81L47.34 10.81L47.34 10.81Q47.33 11.84 47.33 12.37L47.33 12.37L47.33 12.37Q47.32 12.89 47.32 12.95L47.32 12.95L47.32 12.95Q47.32 13.20 47.50 13.34L47.50 13.34L47.50 13.34Q47.68 13.47 47.91 13.52L47.91 13.52L47.91 13.52Q48.15 13.57 48.58 13.59L48.58 13.59L48.58 14.11ZM56.60 10.47L56.60 10.47L56.60 10.47Q56.60 9.24 57.18 8.30L57.18 8.30L57.18 8.30Q57.55 7.71 58.49 7.23L58.49 7.23L58.49 7.23Q59.43 6.75 60.05 6.75L60.05 6.75L60.05 6.75Q61.29 6.75 62.17 7.55L62.17 7.55L62.17 7.55Q63.06 8.34 63.06 10.00L63.06 10.00L63.06 10.00Q63.06 11.72 62.44 12.66L62.44 12.66L62.44 12.66Q61.61 13.76 60.83 14.11L60.83 14.11L60.83 14.11Q60.30 14.35 59.56 14.35L59.56 14.35L59.56 14.35Q59.15 14.35 58.79 14.27L58.79 14.27L58.79 14.27Q58.42 14.20 58.01 13.94L58.01 13.94L58.01 13.94Q57.60 13.69 57.30 13.29L57.30 13.29L57.30 13.29Q56.99 12.88 56.80 12.16L56.80 12.16L56.80 12.16Q56.60 11.44 56.60 10.47ZM57.93 10.36L57.93 10.36L57.93 10.36Q57.93 12.04 58.51 12.70L58.51 12.70L58.51 12.70Q59.09 13.36 60.20 13.36L60.20 13.36L60.20 13.36Q60.62 13.36 60.82 13.29L60.82 13.29L60.82 13.29Q61.78 12.91 61.78 10.37L61.78 10.37L61.78 10.37Q61.78 9.18 61.47 8.63L61.47 8.63L61.47 8.63Q61.15 8.08 60.38 7.84L60.38 7.84L60.38 7.84Q59.99 7.74 59.63 7.74L59.63 7.74L59.63 7.74Q59.35 7.74 59.20 7.76L59.20 7.76L59.20 7.76Q59.05 7.77 58.81 7.84L58.81 7.84L58.81 7.84Q58.58 7.91 58.45 8.07L58.45 8.07L58.45 8.07Q58.32 8.23 58.18 8.51L58.18 8.51L58.18 8.51Q58.04 8.79 57.99 9.26L57.99 9.26L57.99 9.26Q57.93 9.73 57.93 10.36ZM67.09 14.11L63.78 14.11L63.78 13.64L63.78 13.64Q63.90 13.62 64.08 13.59L64.08 13.59L64.08 13.59Q64.26 13.55 64.32 13.54L64.32 13.54L64.32 13.54Q64.37 13.54 64.49 13.50L64.49 13.50L64.49 13.50Q64.61 13.45 64.64 13.43L64.64 13.43L64.64 13.43Q64.67 13.40 64.74 13.31L64.74 13.31L64.74 13.31Q64.81 13.23 64.81 13.15L64.81 13.15L64.81 13.15Q64.82 13.06 64.85 12.91L64.85 12.91L64.85 12.91Q64.88 12.77 64.88 12.60L64.88 12.60L64.88 12.60Q64.88 12.43 64.88 12.18L64.88 12.18L64.88 9.59L64.88 9.59Q64.88 8.15 64.83 4.98L64.83 4.98L64.82 4.31L64.82 4.31Q64.81 3.96 64.65 3.86L64.65 3.86L64.65 3.86Q64.50 3.77 64.04 3.77L64.04 3.77L63.85 3.77L63.83 3.30L63.83 3.30Q64.43 3.23 64.92 3.14L64.92 3.14L64.92 3.14Q65.41 3.05 65.64 3.00L65.64 3.00L65.64 3.00Q65.87 2.94 65.93 2.94L65.93 2.94L65.93 2.94Q66.16 2.94 66.16 3.15L66.16 3.15L66.16 3.15Q66.19 4.30 66.19 6.03L66.19 6.03L66.19 6.03Q66.19 7.74 66.12 9.70L66.12 9.70L66.12 9.70Q66.05 11.65 66.05 12.78L66.05 12.78L66.05 12.78Q66.05 13.31 66.21 13.43L66.21 13.43L66.21 13.43Q66.37 13.55 67.09 13.64L67.09 13.64L67.09 14.11ZM67.82 10.72L67.82 10.72L67.82 10.72Q67.82 9.95 67.90 9.38L67.90 9.38L67.90 9.38Q67.98 8.81 68.08 8.49L68.08 8.49L68.08 8.49Q68.18 8.18 68.38 7.92L68.38 7.92L68.38 7.92Q68.59 7.67 68.69 7.59L68.69 7.59L68.69 7.59Q68.80 7.50 69.03 7.36L69.03 7.36L69.51 7.08L69.51 7.08Q70.11 6.72 70.91 6.72L70.91 6.72L70.91 6.72Q71.55 6.72 72.39 6.92L72.39 6.92L72.39 6.92Q72.39 6.38 72.38 5.69L72.38 5.69L72.38 5.69Q72.37 5.00 72.37 4.82L72.37 4.82L72.37 4.82Q72.37 4.37 72.36 4.19L72.36 4.19L72.36 4.19Q72.35 4.02 72.22 3.89L72.22 3.89L72.22 3.89Q72.09 3.77 71.95 3.76L71.95 3.76L71.95 3.76Q71.82 3.75 71.39 3.74L71.39 3.74L71.36 3.28L71.36 3.28Q71.96 3.22 72.46 3.14L72.46 3.14L72.46 3.14Q72.95 3.05 73.19 3.00L73.19 3.00L73.19 3.00Q73.43 2.94 73.47 2.94L73.47 2.94L73.47 2.94Q73.71 2.94 73.71 3.16L73.71 3.16L73.71 3.16Q73.71 6.17 73.66 8.94L73.66 8.94L73.66 8.94Q73.61 11.70 73.61 12.31L73.61 12.31L73.61 12.31Q73.61 12.67 73.97 13.20L73.97 13.20L73.97 13.20Q74.33 13.73 74.33 13.75L74.33 13.75L74.33 13.75Q74.33 13.79 74.21 13.84L74.21 13.84L74.21 13.84Q74.09 13.89 73.91 13.94L73.91 13.94L73.91 13.94Q73.72 14 73.70 14.01L73.70 14.01L73.70 14.01Q73.15 14.25 73.04 14.25L73.04 14.25L73.04 14.25Q72.93 14.25 72.81 14.02L72.81 14.02L72.81 14.02Q72.70 13.79 72.60 13.51L72.60 13.51L72.60 13.51Q72.49 13.23 72.42 13.16L72.42 13.16L72.42 13.16Q71.37 14.32 70.56 14.32L70.56 14.32L70.56 14.32Q70.25 14.32 69.83 14.13L69.83 14.13L69.83 14.13Q69.40 13.94 68.93 13.56L68.93 13.56L68.93 13.56Q68.46 13.17 68.14 12.43L68.14 12.43L68.14 12.43Q67.82 11.69 67.82 10.72ZM69.05 10.19L69.05 10.19L69.05 10.19Q69.05 11.65 69.60 12.38L69.60 12.38L69.60 12.38Q70.15 13.12 70.97 13.12L70.97 13.12L70.97 13.12Q71.75 13.12 72.41 12.49L72.41 12.49L72.41 12.49Q72.41 10.04 72.39 9.01L72.39 9.01L72.39 9.01Q72.37 7.98 72.37 7.92L72.37 7.92L72.37 7.92Q71.71 7.53 70.71 7.53L70.71 7.53L70.71 7.53Q70.29 7.53 70.03 7.61L70.03 7.61L70.03 7.61Q69.78 7.69 69.52 7.95L69.52 7.95L69.52 7.95Q69.27 8.20 69.16 8.76L69.16 8.76L69.16 8.76Q69.05 9.31 69.05 10.19ZM76.02 4.80L76.02 4.80L76.02 4.80Q76.02 4.63 76.25 4.21L76.25 4.21L76.25 4.21Q76.48 3.79 76.78 3.79L76.78 3.79L76.78 3.79Q76.99 3.79 77.29 4.05L77.29 4.05L77.29 4.05Q77.60 4.31 77.60 4.65L77.60 4.65L77.60 4.65Q77.60 4.98 77.31 5.31L77.31 5.31L77.31 5.31Q77.03 5.64 76.78 5.64L76.78 5.64L76.78 5.64Q76.58 5.64 76.30 5.30L76.30 5.30L76.30 5.30Q76.02 4.96 76.02 4.80ZM78.44 14.11L75.19 14.11L75.19 13.64L75.19 13.64Q75.91 13.58 76.09 13.45L76.09 13.45L76.09 13.45Q76.27 13.31 76.27 12.89L76.27 12.89L76.27 9.98L76.27 9.98Q76.27 8.76 76.21 8.29L76.21 8.29L76.21 8.29Q76.15 7.81 76.01 7.68L76.01 7.68L76.01 7.68Q75.87 7.55 75.47 7.55L75.47 7.55L75.26 7.55L75.24 7.08L75.24 7.08Q75.84 7.03 76.33 6.94L76.33 6.94L76.33 6.94Q76.82 6.86 77.06 6.80L77.06 6.80L77.06 6.80Q77.29 6.75 77.34 6.75L77.34 6.75L77.34 6.75Q77.57 6.75 77.57 6.97L77.57 6.97L77.57 6.97Q77.57 7.14 77.56 7.89L77.56 7.89L77.56 7.89Q77.55 8.64 77.53 10.01L77.53 10.01L77.53 10.01Q77.50 11.38 77.50 13.06L77.50 13.06L77.50 13.06Q77.50 13.34 77.73 13.47L77.73 13.47L77.73 13.47Q77.95 13.61 78.44 13.64L78.44 13.64L78.44 14.11ZM79.21 7.74L79.17 7.21L79.17 7.21Q79.74 7.15 80.32 6.94L80.32 6.94L80.32 6.94Q80.91 6.73 81.06 6.73L81.06 6.73L81.06 6.73Q81.26 6.73 81.33 6.89L81.33 6.89L81.33 6.89Q81.40 7.06 81.40 7.48L81.40 7.48L81.40 7.67L81.40 7.67Q83.01 6.76 84.03 6.76L84.03 6.76L84.03 6.76Q84.84 6.76 85.19 7.26L85.19 7.26L85.19 7.26Q85.54 7.76 85.54 8.40L85.54 8.40L85.54 13.08L85.54 13.08Q85.54 13.38 85.67 13.50L85.67 13.50L85.67 13.50Q85.81 13.61 86.28 13.64L86.28 13.64L86.28 14.11L83.43 14.11L83.43 13.64L83.43 13.64Q83.96 13.59 84.09 13.47L84.09 13.47L84.09 13.47Q84.22 13.34 84.22 13.02L84.22 13.02L84.22 8.58L84.22 8.58Q84.22 8.23 84.01 8.04L84.01 8.04L84.01 8.04Q83.79 7.85 83.56 7.82L83.56 7.82L83.56 7.82Q83.33 7.78 82.99 7.78L82.99 7.78L82.99 7.78Q82.73 7.78 82.22 7.95L82.22 7.95L82.22 7.95Q81.72 8.11 81.44 8.30L81.44 8.30L81.44 8.30Q81.42 9.13 81.40 10.03L81.40 10.03L81.40 10.03Q81.37 10.93 81.35 11.49L81.35 11.49L81.35 11.49Q81.34 12.04 81.34 12.38L81.34 12.38L81.34 12.38Q81.34 13.23 81.48 13.42L81.48 13.42L81.48 13.42Q81.62 13.61 82.17 13.64L82.17 13.64L82.17 14.11L79.23 14.11L79.23 13.64L79.23 13.64Q79.52 13.59 79.64 13.55L79.64 13.55L79.64 13.55Q79.76 13.51 79.88 13.44L79.88 13.44L79.88 13.44Q80.00 13.37 80.03 13.17L80.03 13.17L80.03 13.17Q80.07 12.96 80.08 12.73L80.08 12.73L80.08 12.73Q80.09 12.50 80.09 12.01L80.09 12.01L80.09 12.01Q80.09 11.83 80.05 10.04L80.05 10.04L80.05 10.04Q80.01 8.26 80.00 8.20L80.00 8.20L80.00 8.20Q79.98 8.13 79.96 8.07L79.96 8.07L79.96 8.07Q79.94 8.01 79.91 7.97L79.91 7.97L79.91 7.97Q79.87 7.92 79.85 7.90L79.85 7.90L79.85 7.90Q79.83 7.87 79.77 7.84L79.77 7.84L79.77 7.84Q79.72 7.81 79.69 7.80L79.69 7.80L79.69 7.80Q79.66 7.80 79.58 7.78L79.58 7.78L79.58 7.78Q79.51 7.77 79.48 7.76L79.48 7.76L79.48 7.76Q79.45 7.76 79.35 7.75L79.35 7.75L79.35 7.75Q79.25 7.74 79.21 7.74L79.21 7.74ZM86.74 15.27L86.74 15.27L86.74 15.27Q86.74 15.06 86.79 14.88L86.79 14.88L86.79 14.88Q86.84 14.70 87.00 14.44L87.00 14.44L87.00 14.44Q87.16 14.18 87.56 13.92L87.56 13.92L87.56 13.92Q87.95 13.65 88.54 13.40L88.54 13.40L88.54 13.40Q87.43 13.24 87.43 12.64L87.43 12.64L87.43 12.64Q87.43 12.01 88.68 11.63L88.68 11.63L88.68 11.63Q87.96 11.31 87.65 10.96L87.65 10.96L87.65 10.96Q87.35 10.60 87.22 9.93L87.22 9.93L87.22 9.93Q87.21 9.87 87.21 9.66L87.21 9.66L87.21 9.66Q87.21 8.90 87.44 8.37L87.44 8.37L87.44 8.37Q87.65 7.94 88.49 7.36L88.49 7.36L88.49 7.36Q89.33 6.78 90.30 6.78L90.30 6.78L90.30 6.78Q91.14 6.78 91.81 7.34L91.81 7.34L91.81 7.34Q92.50 7.31 93.17 7.15L93.17 7.15L93.25 7.24L93.25 7.83L92.15 7.83L92.15 7.83Q92.26 7.98 92.34 8.44L92.34 8.44L92.34 8.44Q92.43 8.90 92.43 9.25L92.43 9.25L92.43 9.25Q92.43 9.84 92.25 10.26L92.25 10.26L92.25 10.26Q92.06 10.68 91.62 11.09L91.62 11.09L91.62 11.09Q90.89 11.51 89.85 11.73L89.85 11.73L89.85 11.73Q88.70 12.03 88.70 12.53L88.70 12.53L88.70 12.53Q88.70 12.73 88.87 12.87L88.87 12.87L88.87 12.87Q89.04 13.01 89.31 13.01L89.31 13.01L90.97 13.01L90.97 13.01Q91.90 13.01 92.25 13.15L92.25 13.15L92.25 13.15Q92.60 13.29 92.92 13.71L92.92 13.71L92.92 13.71Q93.25 14.13 93.25 14.63L93.25 14.63L93.25 14.63Q93.25 15.01 93.06 15.39L93.06 15.39L93.06 15.39Q92.86 15.78 92.46 16.14L92.46 16.14L92.46 16.14Q92.06 16.51 91.32 16.74L91.32 16.74L91.32 16.74Q90.58 16.97 89.61 16.97L89.61 16.97L89.61 16.97Q89.15 16.97 88.70 16.89L88.70 16.89L88.70 16.89Q88.24 16.81 87.78 16.64L87.78 16.64L87.78 16.64Q87.32 16.46 87.03 16.11L87.03 16.11L87.03 16.11Q86.74 15.75 86.74 15.27ZM87.95 14.87L87.95 14.87L87.95 14.87Q87.95 15.51 88.56 15.97L88.56 15.97L88.56 15.97Q89.18 16.42 89.85 16.42L89.85 16.42L89.85 16.42Q90.89 16.42 91.40 15.96L91.40 15.96L91.40 15.96Q91.91 15.50 91.91 14.76L91.91 14.76L91.91 14.76Q91.91 13.69 90.27 13.69L90.27 13.69L90.27 13.69Q87.95 13.69 87.95 14.87ZM88.49 9.58L88.49 9.58L88.49 9.58Q88.49 10.22 88.86 10.63L88.86 10.63L88.86 10.63Q89.22 11.03 89.91 11.03L89.91 11.03L89.91 11.03Q90.59 11.03 90.85 10.67L90.85 10.67L90.85 10.67Q91.10 10.30 91.10 9.30L91.10 9.30L91.10 9.30Q91.10 8.39 90.82 8.06L90.82 8.06L90.82 8.06Q90.54 7.74 89.73 7.64L89.73 7.64L89.73 7.64Q89.66 7.63 89.53 7.63L89.53 7.63L89.53 7.63Q89.01 7.63 88.75 8.06L88.75 8.06L88.75 8.06Q88.49 8.48 88.49 9.58ZM93.88 9.10L93.88 9.10L93.88 9.10Q93.88 8.43 94.12 8.06L94.12 8.06L94.12 8.06Q94.63 7.25 95.07 7.01L95.07 7.01L95.07 7.01Q95.52 6.76 96.40 6.76L96.40 6.76L96.40 6.76Q96.92 6.76 97.48 7L97.48 7L97.48 7Q97.64 7.06 97.71 7.10L97.71 7.10L97.71 7.10Q97.79 7.15 97.87 7.30L97.87 7.30L97.87 7.30Q97.96 7.45 97.96 7.69L97.96 7.69L97.96 7.69Q97.96 7.73 97.94 7.90L97.94 7.90L97.94 7.90Q97.93 8.08 97.92 8.39L97.92 8.39L97.92 8.39Q97.92 8.69 97.92 9.06L97.92 9.06L97.40 9.06L97.40 9.06Q97.38 8.88 97.28 8.53L97.28 8.53L97.28 8.53Q97.17 8.18 97.05 7.99L97.05 7.99L97.05 7.99Q96.77 7.59 96.00 7.59L96.00 7.59L96.00 7.59Q95.62 7.59 95.37 7.69L95.37 7.69L95.37 7.69Q95.12 7.80 95.01 7.96L95.01 7.96L95.01 7.96Q94.91 8.12 94.86 8.25L94.86 8.25L94.86 8.25Q94.82 8.39 94.82 8.51L94.82 8.51L94.82 8.51Q94.82 8.96 95.17 9.23L95.17 9.23L95.17 9.23Q95.52 9.51 96.03 9.67L96.03 9.67L96.03 9.67Q96.53 9.84 97.04 10.04L97.04 10.04L97.04 10.04Q97.55 10.25 97.90 10.72L97.90 10.72L97.90 10.72Q98.25 11.19 98.25 11.90L98.25 11.90L98.25 11.90Q98.25 12.64 98.04 12.99L98.04 12.99L98.04 12.99Q97.66 13.59 97.15 14L97.15 14L97.15 14Q96.94 14.15 96.49 14.25L96.49 14.25L96.49 14.25Q96.04 14.35 95.82 14.35L95.82 14.35L95.82 14.35Q94.32 14.35 94.02 13.85L94.02 13.85L94.02 13.85Q93.91 13.66 93.91 13.37L93.91 13.37L93.91 13.37Q93.91 12.24 93.98 11.98L93.98 11.98L93.98 11.98Q94.04 11.72 94.29 11.72L94.29 11.72L94.29 11.72Q94.50 11.72 94.56 11.91L94.56 11.91L94.56 11.91Q94.61 12.11 94.66 12.45L94.66 12.45L94.66 12.45Q94.71 12.80 94.86 13.01L94.86 13.01L94.86 13.01Q95.19 13.45 96.03 13.45L96.03 13.45L96.03 13.45Q96.64 13.45 96.99 13.17L96.99 13.17L96.99 13.17Q97.34 12.89 97.34 12.40L97.34 12.40L97.34 12.40Q97.34 11.93 96.98 11.65L96.98 11.65L96.98 11.65Q96.63 11.37 96.12 11.21L96.12 11.21L96.12 11.21Q95.61 11.05 95.10 10.86L95.10 10.86L95.10 10.86Q94.60 10.67 94.24 10.23L94.24 10.23L94.24 10.23Q93.88 9.80 93.88 9.10Z"></path></g><!----><g data-v-423bf9ae="" id="47ee4e2e-93ea-4317-b21c-6f7b1eb7347b" transform="matrix(3.860175764033615,0,0,3.860175764033615,0.23718777546216074,-16.421744111390325)" stroke="none" fill="#007DE8"><path d="M12.289 5.343v19.9L1 13.954V5.343h11.289m1-1H0v10.026l13.289 13.289V4.343zM31 5.343v8.612L19.711 25.243v-19.9H31m1-1H18.711v23.315L32 14.369V4.343z"></path></g><!----></svg>